<svg width="176" height="132" viewBox="0 0 176 132" fill="none" xmlns="http://www.w3.org/2000/svg">
<path d="M176 0H0V127H176V0Z" fill="#313131"/>
<path d="M30.24 55V35.2H37.29C39.63 35.2 41.34 35.69 42.42 36.67C43.5 37.65 44.04 38.98 44.04 40.66C44.04 41.66 43.75 42.57 43.17 43.39C42.59 44.19 41.77 44.7 40.71 44.92V44.95C41.89 45.17 42.82 45.71 43.5 46.57C44.2 47.41 44.55 48.37 44.55 49.45C44.55 51.13 43.92 52.48 42.66 53.5C41.4 54.5 39.6 55 37.26 55H30.24ZM32.64 43.9H37.32C40.12 43.9 41.52 42.82 41.52 40.66C41.52 38.52 40.12 37.45 37.32 37.45H32.64V43.9ZM32.64 52.75H37.83C39.25 52.75 40.3 52.46 40.98 51.88C41.68 51.3 42.03 50.49 42.03 49.45C42.03 48.39 41.68 47.58 40.98 47.02C40.3 46.44 39.25 46.15 37.83 46.15H32.64V52.75ZM57.8196 34.9C59.6996 34.9 61.3196 35.32 62.6796 36.16C64.0596 36.98 65.1196 38.15 65.8596 39.67C66.6196 41.19 66.9996 43 66.9996 45.1C66.9996 47.2 66.6196 49.01 65.8596 50.53C65.1196 52.05 64.0596 53.23 62.6796 54.07C61.3196 54.89 59.6996 55.3 57.8196 55.3C55.9396 55.3 54.3096 54.89 52.9296 54.07C51.5696 53.23 50.5096 52.05 49.7496 50.53C49.0096 49.01 48.6396 47.2 48.6396 45.1C48.6396 43 49.0096 41.19 49.7496 39.67C50.5096 38.15 51.5696 36.98 52.9296 36.16C54.3096 35.32 55.9396 34.9 57.8196 34.9ZM57.8196 37.15C55.7596 37.15 54.1296 37.85 52.9296 39.25C51.7496 40.65 51.1596 42.6 51.1596 45.1C51.1596 47.58 51.7496 49.53 52.9296 50.95C54.1296 52.35 55.7596 53.05 57.8196 53.05C59.8796 53.05 61.4996 52.35 62.6796 50.95C63.8796 49.53 64.4796 47.58 64.4796 45.1C64.4796 42.6 63.8796 40.65 62.6796 39.25C61.4996 37.85 59.8796 37.15 57.8196 37.15ZM80.261 34.9C82.141 34.9 83.761 35.32 85.121 36.16C86.501 36.98 87.561 38.15 88.301 39.67C89.061 41.19 89.441 43 89.441 45.1C89.441 47.2 89.061 49.01 88.301 50.53C87.561 52.05 86.501 53.23 85.121 54.07C83.761 54.89 82.141 55.3 80.261 55.3C78.381 55.3 76.751 54.89 75.371 54.07C74.011 53.23 72.951 52.05 72.191 50.53C71.451 49.01 71.081 47.2 71.081 45.1C71.081 43 71.451 41.19 72.191 39.67C72.951 38.15 74.011 36.98 75.371 36.16C76.751 35.32 78.381 34.9 80.261 34.9ZM80.261 37.15C78.201 37.15 76.571 37.85 75.371 39.25C74.191 40.65 73.601 42.6 73.601 45.1C73.601 47.58 74.191 49.53 75.371 50.95C76.571 52.35 78.201 53.05 80.261 53.05C82.321 53.05 83.941 52.35 85.121 50.95C86.321 49.53 86.921 47.58 86.921 45.1C86.921 42.6 86.321 40.65 85.121 39.25C83.941 37.85 82.321 37.15 80.261 37.15ZM97.1224 35.2V45.4L107.082 35.2H110.232L102.342 43.27L110.322 55H107.442L100.662 45.04L97.1224 48.64V55H94.7224V35.2H97.1224ZM46.2 84.93C45.58 86.63 44.56 87.95 43.14 88.89C41.72 89.83 40.08 90.3 38.22 90.3C36.34 90.3 34.71 89.89 33.33 89.07C31.97 88.23 30.91 87.05 30.15 85.53C29.41 84.01 29.04 82.2 29.04 80.1C29.04 78 29.41 76.19 30.15 74.67C30.91 73.15 31.97 71.98 33.33 71.16C34.71 70.32 36.32 69.9 38.16 69.9C40.08 69.9 41.68 70.3 42.96 71.1C44.26 71.88 45.22 73.02 45.84 74.52L43.47 75.63C43.03 74.49 42.39 73.63 41.55 73.05C40.73 72.45 39.66 72.15 38.34 72.15C37 72.15 35.82 72.47 34.8 73.11C33.78 73.73 32.98 74.63 32.4 75.81C31.84 76.99 31.56 78.42 31.56 80.1C31.56 82.58 32.15 84.53 33.33 85.95C34.53 87.35 36.16 88.05 38.22 88.05C39.54 88.05 40.69 87.72 41.67 87.06C42.65 86.38 43.36 85.37 43.8 84.03L46.2 84.93ZM58.7864 69.9C60.6664 69.9 62.2864 70.32 63.6464 71.16C65.0264 71.98 66.0864 73.15 66.8264 74.67C67.5864 76.19 67.9664 78 67.9664 80.1C67.9664 82.2 67.5864 84.01 66.8264 85.53C66.0864 87.05 65.0264 88.23 63.6464 89.07C62.2864 89.89 60.6664 90.3 58.7864 90.3C56.9064 90.3 55.2764 89.89 53.8964 89.07C52.5364 88.23 51.4764 87.05 50.7164 85.53C49.9764 84.01 49.6064 82.2 49.6064 80.1C49.6064 78 49.9764 76.19 50.7164 74.67C51.4764 73.15 52.5364 71.98 53.8964 71.16C55.2764 70.32 56.9064 69.9 58.7864 69.9ZM58.7864 72.15C56.7264 72.15 55.0964 72.85 53.8964 74.25C52.7164 75.65 52.1264 77.6 52.1264 80.1C52.1264 82.58 52.7164 84.53 53.8964 85.95C55.0964 87.35 56.7264 88.05 58.7864 88.05C60.8464 88.05 62.4664 87.35 63.6464 85.95C64.8464 84.53 65.4464 82.58 65.4464 80.1C65.4464 77.6 64.8464 75.65 63.6464 74.25C62.4664 72.85 60.8464 72.15 58.7864 72.15ZM80.7478 70.2C82.7678 70.2 84.3878 70.72 85.6078 71.76C86.8278 72.8 87.4378 74.21 87.4378 75.99C87.4378 77.41 87.0378 78.58 86.2378 79.5C85.4378 80.42 84.3578 81.05 82.9978 81.39L88.6378 90H85.7878L80.3878 81.78H75.6478V90H73.2478V70.2H80.7478ZM80.7178 79.53C83.5178 79.53 84.9178 78.35 84.9178 75.99C84.9178 73.63 83.5178 72.45 80.7178 72.45H75.6478V79.53H80.7178ZM108.739 70.2V90H105.769L97.489 76.74L95.389 73.02H95.359L95.479 76.02V90H93.199V70.2H96.169L104.419 83.4L106.549 87.21H106.579L106.459 84.18V70.2H108.739ZM115.23 90V70.2H129.12V72.45H117.63V78.84H126.57V81.09H117.63V87.75H129.57V90H115.23ZM141.861 70.2C143.881 70.2 145.501 70.72 146.721 71.76C147.941 72.8 148.551 74.21 148.551 75.99C148.551 77.41 148.151 78.58 147.351 79.5C146.551 80.42 145.471 81.05 144.111 81.39L149.751 90H146.901L141.501 81.78H136.761V90H134.361V70.2H141.861ZM141.831 79.53C144.631 79.53 146.031 78.35 146.031 75.99C146.031 73.63 144.631 72.45 141.831 72.45H136.761V79.53H141.831Z" fill="white"/>
</svg>
